<svg xmlns="http://www.w3.org/2000/svg" width="1920" height="1080" xml:space="preserve">
  <path fill="#8EC04C" d="m128 0 5 1"/>
  <path fill="#F0DE56" d="m1680 143 146 49-149-139 3 90z"/>
  <path fill="#F0DB56" d="m1491 27 189 116-3-90-186-26z"/>
  <path fill="#F0DE56" d="m1413 211 267-68-189-116-78 184z"/>
  <path fill="#F1D55A" d="m1270 163 143 48 78-184-221 136z"/>
  <path fill="#D9DA57" d="m667 179 274-41-83-116-191 157z"/>
  <path fill="#89BE4C" d="m0 145 144 98L133 0 0 126v19z"/>
  <path fill="#A3C750" d="M0 0v126L133 0H0z"/>
  <path fill="#F2B358" d="m1600 338 250-14-24-132-226 146z"/>
  <path fill="#F1D359" d="m1680 143-80 195 226-146-146-49z"/>
  <path fill="#F0CC56" d="m1413 211 187 127 80-195-267 68z"/>
  <path fill="#F2B758" d="m1491 452 109-114-187-127 78 241z"/>
  <path fill="#F1D55A" d="m1206 309 285 143-78-241-207 98z"/>
  <path fill="#F0C958" d="m1270 163-64 146 207-98-143-48z"/>
  <path fill="#F1D159" d="m1039 129 167 180 64-146-231-34z"/>
  <path fill="#EBDF57" d="m1056 324 150-15-167-180 17 195z"/>
  <path fill="#D1D857" d="m941 138 115 186-17-195-98 9z"/>
  <path fill="#E2DD56" d="m861 390 195-66-115-186-80 252z"/>
  <path fill="#DEDB59" d="m762 374 99 16 80-252-179 236z"/>
  <path fill="#E8DF55" d="m667 179 95 195 179-236-274 41z"/>
  <path fill="#CDD655" d="m546 399 216-25-95-195-121 220z"/>
  <path fill="#CBD655" d="m497 211 49 188 121-220-170 32z"/>
  <path fill="#BED255" d="m364 265 182 134-49-188-133 54z"/>
  <path fill="#ADCB51" d="m351 349 195 50-182-134-13 84z"/>
  <path fill="#C6D455" d="m229 354 122-5 13-84-135 89z"/>
  <path fill="#B1CD52" d="m144 243 85 111 135-89-220-22z"/>
  <path fill="#A1C750" d="m0 431 229-77-85-111L0 428v3z"/>
  <path fill="#ACCB51" d="m0 428 144-185L0 145v283z"/>
  <path fill="#F2BB59" d="m1600 338 195 174 55-188-250 14z"/>
  <path fill="#F1AA59" d="m1582 535 213-23-195-174-18 197z"/>
  <path fill="#EF8959" d="m1491 452 91 83 18-197-109 114z"/>
  <path fill="#F1A558" d="m1427 559 155-24-91-83-64 107z"/>
  <path fill="#F19858" d="m1220 557 207 2 64-107-271 105z"/>
  <path fill="#F0C358" d="m1206 309 14 248 271-105-285-143z"/>
  <path fill="#F1D55A" d="m998 509 222 48-14-248-208 200z"/>
  <path fill="#F0D857" d="m1056 324-58 185 208-200-150 15z"/>
  <path fill="#E8DE55" d="m861 390 137 119 58-185-195 66z"/>
  <path fill="#F1E157" d="m852 513 146-4-137-119-9 123z"/>
  <path fill="#EBE157" d="m762 374 90 139 9-123-99-16z"/>
  <path fill="#E2DD56" d="m713 492 139 21-90-139-49 118z"/>
  <path fill="#D7D956" d="m546 399 167 93 49-118-216 25z"/>
  <path fill="#CBD554" d="m551 523 162-31-167-93 5 124z"/>
  <path fill="#E4DE56" d="m345 577 206-54-5-124-201 178z"/>
  <path fill="#CDD655" d="m351 349-6 228 201-178-195-50z"/>
  <path fill="#A9CA51" d="m196 536 149 41 6-228-155 187z"/>
  <path fill="#B7CF54" d="m229 354-33 182 155-187-122 5z"/>
  <path fill="#AFCC53" d="m0 434 196 102 33-182L0 431v3z"/>
  <path fill="#A0C651" d="m0 505 196 31L0 434v71z"/>
  <path fill="#EC6E5A" d="m1840 761 64-67-109-182 45 249z"/>
  <path fill="#EF8359" d="m1625 715 215 46-45-249-170 203z"/>
  <path fill="#ED745A" d="m1582 535 43 180 170-203-213 23z"/>
  <path fill="#F2A258" d="m1479 755 146-40-43-180-103 220z"/>
  <path fill="#EF8C58" d="m1427 559 52 196 103-220-155 24z"/>
  <path fill="#F19558" d="m1319 727 160 28-52-196-108 168z"/>
  <path fill="#F2A258" d="m1220 557 99 170 108-168-207-2z"/>
  <path fill="#F2B658" d="m1032 723 287 4-99-170-188 166z"/>
  <path fill="#F0C358" d="m998 509 34 214 188-166-222-48z"/>
  <path fill="#F1D359" d="m937 756 95-33-34-214-61 247z"/>
  <path fill="#F0DB56" d="m852 513 85 243 61-247-146 4z"/>
  <path fill="#F1D359" d="m695 673 242 83-85-243-157 160z"/>
  <path fill="#E4DE56" d="m713 492-18 181 157-160-139-21z"/>
  <path fill="#EFE157" d="m551 523 144 150 18-181-162 31z"/>
  <path fill="#E8DF56" d="m481 710 214-37-144-150-70 187z"/>
  <path fill="#D7D956" d="m345 577 136 133 70-187-206 54z"/>
  <path fill="#E4DE56" d="m393 773 88-63-136-133 48 196z"/>
  <path fill="#D4D856" d="m230 698 163 75-48-196-115 121z"/>
  <path fill="#B8D056" d="m196 536 34 162 115-121-149-41z"/>
  <path fill="#AFCC53" d="m0 762 230-64-34-162L0 727v35z"/>
  <path fill="#A5C851" d="m0 727 196-191L0 505v222z"/>
  <path fill="#EB655A" d="m1625 715 187 215 28-169-215-46z"/>
  <path fill="#EF7F5A" d="m1555 961 257-31-187-215-70 246z"/>
  <path fill="#EF8A58" d="m1479 755 76 206 70-246-146 40z"/>
  <path fill="#F19658" d="m1471 937 84 24-76-206-8 182z"/>
  <path fill="#F29E57" d="m1319 727 152 210 8-182-160-28z"/>
  <path fill="#F2A258" d="m1294 942 177-5-152-210-25 215z"/>
  <path fill="#F1A758" d="m1086 928 208 14 25-215-233 201z"/>
  <path fill="#F0AD5A" d="m1032 723 54 205 233-201-287-4z"/>
  <path fill="#F0C958" d="m937 756 149 172-54-205-95 33z"/>
  <path fill="#F1C058" d="m828 937 258-9-149-172-109 181z"/>
  <path fill="#E2DD56" d="m695 673 133 264 109-181-242-83z"/>
  <path fill="#EEE057" d="m661 965 167-28-133-264-34 292z"/>
  <path fill="#E8DF56" d="m518 899 143 66 34-292-177 226z"/>
  <path fill="#F1DA57" d="m481 710 37 189 177-226-214 37z"/>
  <path fill="#DCDB57" d="m393 773 125 126-37-189-88 63z"/>
  <path fill="#EBE157" d="m381 882 137 17-125-126-12 109z"/>
  <path fill="#B7CF54" d="m162 851 219 31 12-109-231 78z"/>
  <path fill="#B0CC53" d="m230 698-68 153 231-78-163-75z"/>
  <path fill="#C0D256" d="m0 795 162 56 68-153L0 762v33z"/>
  <path fill="#B7CF54" d="m0 896 162-45L0 795v101z"/>
  <path fill="#EA595B" d="M1920 1080v-47l-108-103-64 150h172z"/>
  <path fill="#EB655A" d="m1555 961 149 119h44l64-150-257 31z"/>
  <path fill="#EE785A" d="m1704 1080-149-119 9 119h140z"/>
  <path fill="#F0885A" d="m1564 1080-9-119-135 119h144z"/>
  <path fill="#F29B58" d="m1471 937-79 143h28l135-119-84-24z"/>
  <path fill="#F2B758" d="m1294 942 54 138h44l79-143-177 5z"/>
  <path fill="#F19158" d="m1177 1036 91 44h80l-54-138-117 94z"/>
  <path fill="#F19858" d="m1086 928 91 108 117-94-208-14z"/>
  <path fill="#F2BB59" d="m1126 1080 51-44-91-108-25 152h65z"/>
  <path fill="#F1C758" d="m928 1074 11 6h122l25-152-158 146z"/>
  <path fill="#F1D35A" d="m828 937 100 137 158-146-258 9z"/>
  <path fill="#EFE157" d="m913 1080 15-6-100-137-60 143h145z"/>
  <path fill="#F1CE57" d="m661 965 45 115h62l60-143-167 28z"/>
  <path fill="#F0D857" d="m531 1058 45 22h130l-45-115-130 93z"/>
  <path fill="#DCDB57" d="m518 899 13 159 130-93-143-66z"/>
  <path fill="#E2DD56" d="m381 882 150 176-13-159-137-17z"/>
  <path fill="#D7D956" d="m474 1080 57-22-150-176-78 198h171z"/>
  <path fill="#D7D956" d="m163 1037 39 43h101l78-198-218 155z"/>
  <path fill="#C7D455" d="m162 851 1 186 218-155-219-31z"/>
  <path fill="#CED755" d="m51 1053 112-16-1-186-111 202z"/>
  <path fill="#BED155" d="m0 977 51 76 111-202L0 896v81z"/>
  <path fill="#BED155" d="m0 1066 51-13-51-76v89z"/>
  <path fill="#EF8A58" d="m1177 1036 19 44h72l-91-44z"/>
  <path fill="#F08459" d="m1196 1080-19-44-19 44h38z"/>
  <path fill="#F1AB59" d="m1158 1080 19-44-51 44h32z"/>
  <path fill="#F1D65A" d="M928 1074v6h11l-11-6z"/>
  <path fill="#F1C557" d="M928 1080v-6l-5 6h5z"/>
  <path fill="#F1C058" d="m923 1080 5-6-15 6h10z"/>
  <path fill="#F0C958" d="m531 1058-7 22h52l-45-22z"/>
  <path fill="#EADF57" d="m524 1080 7-22-57 22h50z"/>
  <path fill="#E8DF56" d="m163 1037-1 43h40l-39-43z"/>
  <path fill="#BED255" d="m51 1053 15 27h96l1-43-112 16z"/>
  <path fill="#E8DF56" d="m66 1080-15-27-2 27h17z"/>
  <path fill="#CFD757" d="M0 1080h49l2-27-51 13v14z"/>
  <path fill="#EC695B" d="m1920 916-108 14 108 103z"/>
  <path fill="#F08659" d="m1920 895-80-134-28 169 108-14z"/>
  <path fill="#EC6C5A" d="m1920 698-16-4 16 130z"/>
  <path fill="#ED7059" d="m1920 824-16-130-64 67 80 134z"/>
  <path fill="#EF8A58" d="m1920 670-16 24 16 4z"/>
  <path fill="#ED7259" d="m1920 457-125 55 125-2z"/>
  <path fill="#EF8259" d="m1920 510-125 2 109 182 16-24z"/>
  <path fill="#F19858" d="m1920 383-70-59-55 188 125-55z"/>
  <path fill="#F1C557" d="m1920 332-70-8 70 59z"/>
  <path fill="#F2A058" d="m1920 243-70 81 70 8z"/>
  <path fill="#F2A258" d="m1920 177-94 15 24 132 70-81z"/>
  <path fill="#F0C958" d="m1920 29-94 163 94-15z"/>
  <path fill="#F0D857" d="m1813 0 13 192 94-163V12l-24-12z"/>
  <path fill="#F0DB56" d="m1896 0 24 12V0z"/>
  <path fill="#F1CC58" d="m1751 0-74 53 149 139-13-192z"/>
  <path fill="#EEE057" d="m1697 0-20 53 74-53z"/>
  <path fill="#F0DC57" d="m1664 0 13 53 20-53z"/>
  <path fill="#F1D359" d="m1511 0-20 27 186 26-13-53z"/>
  <path fill="#F1D658" d="m1475 0 16 27 20-27z"/>
  <path fill="#F1D057" d="m1356 0-86 163 221-136-16-27z"/>
  <path fill="#EBE058" d="m1190 0 80 163 86-163z"/>
  <path fill="#E8DF56" d="m1159 0-120 129 231 34-80-163z"/>
  <path fill="#D9DA57" d="m1028 0 11 129L1159 0z"/>
  <path fill="#EADF57" d="m1014 0-73 138 98-9-11-129z"/>
  <path fill="#D4D856" d="m942 0-84 22 83 116 73-138z"/>
  <path fill="#B8D056" d="m857 0 1 22 84-22z"/>
  <path fill="#D1D857" d="m820 0 38 22-1-22z"/>
  <path fill="#C3D355" d="m717 0-50 179L858 22 820 0z"/>
  <path fill="#B8D056" d="m650 0 17 179L717 0z"/>
  <path fill="#C6D355" d="m489 0 178 179L650 0z"/>
  <path fill="#B1CD52" d="m459 0 38 211 170-32L489 0z"/>
  <path fill="#A3C851" d="m342 0 155 211L459 0z"/>
  <path fill="#BBD155" d="m338 0 26 265 133-54L342 0z"/>
  <path fill="#A3C750" d="M333 0 144 243l220 22L338 0z"/>
  <path fill="#97C34F" d="M170 0h-37l11 243L333 0z"/>
</svg>
