<?xml version="1.0" encoding="utf-8"?>
<!DOCTYPE svg PUBLIC "-//W3C//DTD SVG 1.1//EN" "http://www.w3.org/Graphics/SVG/1.1/DTD/svg11.dtd">
<svg version="1.1" id="1" xmlns="http://www.w3.org/2000/svg" xmlns:xlink="http://www.w3.org/1999/xlink" x="0px" y="0px"
	 width="1920px" height="1080px" viewBox="0 0 1920 1080" enable-background="new 0 0 1920 1080" xml:space="preserve">
<path fill="#E4E6E8" d="M1680.183,142.588l146.132,49.514L1676.57,53.232L1680.183,142.588z"/>
<path fill="#E1E3E5" d="M1490.589,26.661l189.594,115.927l-3.612-89.355L1490.589,26.661z"/>
<path fill="#E3E5E7" d="M1413.301,211.433l266.882-68.845L1490.589,26.661L1413.301,211.433z"/>
<path fill="#E8EAEB" d="M1269.588,163.125l143.713,48.307l77.288-184.771L1269.588,163.125z"/>
<path fill="#EBECED" d="M666.972,178.83l274.137-41.068l-83.331-115.93L666.972,178.83z"/>
<path fill="#EBECED" d="M0,144.562l144.06,98.272L134,0L0,125.618L0,144.562z"/>
<path fill="#E8EAEB" d="M0,0v125.618L134,0h-5.772H0z"/>
<path fill="#E8EAEB" d="M1600.483,338.238l249.984-14.498l-24.153-131.639L1600.483,338.238z"/>
<path fill="#E1E3E5" d="M1680.183,142.588l-79.699,195.65l225.831-146.136L1680.183,142.588z"/>
<path fill="#E9EAEC" d="M1413.301,211.433l187.183,126.806l79.699-195.65L1413.301,211.433z"/>
<path fill="#E3E4E6" d="M1490.589,451.75l109.895-113.512l-187.183-126.806L1490.589,451.75z"/>
<path fill="#E8EAEB" d="M1205.58,309.243l285.009,142.507l-77.288-240.317L1205.58,309.243z"/>
<path fill="#E5E7E9" d="M1269.588,163.125l-64.008,146.118l207.721-97.811L1269.588,163.125z"/>
<path fill="#EBECED" d="M1038.932,129.313l166.648,179.931l64.008-146.118L1038.932,129.313z"/>
<path fill="#EAEBEC" d="M1055.832,323.741l149.748-14.498l-166.648-179.931L1055.832,323.741z"/>
<path fill="#EEEFF1" d="M941.109,137.761l114.723,185.979l-16.9-194.428L941.109,137.761z"/>
<path fill="#ECEEEF" d="M861.403,390.164l194.429-66.423L941.109,137.761L861.403,390.164z"/>
<path fill="#EAEBEC" d="M762.374,374.468l99.03,15.696l79.706-252.403L762.374,374.468z"/>
<path fill="#EFF0F1" d="M666.972,178.83l95.401,195.639l178.735-236.707L666.972,178.83z"/>
<path fill="#EBECED" d="M546.202,398.606l216.172-24.138L666.972,178.83L546.202,398.606z"/>
<path fill="#EAEBEC" d="M496.689,211.433l49.512,187.174L666.972,178.83L496.689,211.433z"/>
<path fill="#EBECED" d="M363.847,264.566l182.354,134.041l-49.512-187.174L363.847,264.566z"/>
<path fill="#E8EAEB" d="M350.566,349.102l195.636,49.504L363.847,264.566L350.566,349.102z"/>
<path fill="#ECEDEE" d="M228.594,353.931l121.972-4.829l13.281-84.536L228.594,353.931z"/>
<path fill="#EEEFF1" d="M144.059,242.833l84.535,111.097l135.253-89.365L144.059,242.833z"/>
<path fill="#ECEDEE" d="M0,431.321l228.594-77.391l-84.535-111.097L0,428.218L0,431.321z"/>
<path fill="#E8EAEB" d="M0,428.218l144.059-185.384L0,144.562L0,428.218z"/>
<path fill="#E1E3E5" d="M1600.483,338.238l194.434,173.892l55.551-188.39L1600.483,338.238z"/>
<path fill="#E5E7E9" d="M1582.37,535.085l212.547-22.955l-194.434-173.892L1582.37,535.085z"/>
<path fill="#E8EAEB" d="M1490.589,451.75l91.781,83.335l18.113-196.847L1490.589,451.75z"/>
<path fill="#E6E8EA" d="M1426.583,559.235l155.787-24.15l-91.781-83.335L1426.583,559.235z"/>
<path fill="#EDEFF0" d="M1220.076,556.813l206.507,2.423l64.006-107.485L1220.076,556.813z"/>
<path fill="#EBECED" d="M1205.58,309.243l14.496,247.569l270.513-105.063L1205.58,309.243z"/>
<path fill="#EAEBEC" d="M998.47,508.509l221.606,48.304l-14.496-247.569L998.47,508.509z"/>
<path fill="#ECEEEF" d="M1055.832,323.741L998.47,508.509l207.11-199.266L1055.832,323.741z"/>
<path fill="#EEEFF1" d="M861.403,390.164L998.47,508.509l57.362-184.768L861.403,390.164z"/>
<path fill="#ECEDEE" d="M851.741,513.336l146.729-4.828L861.403,390.164L851.741,513.336z"/>
<path fill="#EEEFF1" d="M762.374,374.468l89.368,138.868l9.662-123.172L762.374,374.468z"/>
<path fill="#ECEDEE" d="M712.859,491.608l138.882,21.728l-89.368-138.868L712.859,491.608z"/>
<path fill="#EEEFF1" d="M546.202,398.606l166.658,93.002l49.514-117.14L546.202,398.606z"/>
<path fill="#EAEBEC" d="M551.038,523.006l161.822-31.398l-166.658-93.002L551.038,523.006z"/>
<path fill="#EEEFF1" d="M344.529,577.354l206.509-54.348l-4.836-124.4L344.529,577.354z"/>
<path fill="#EBECED" d="M350.566,349.102l-6.037,228.252l201.673-178.748L350.566,349.102z"/>
<path fill="#E8EAEB" d="M195.989,536.282l148.54,41.073l6.037-228.252L195.989,536.282z"/>
<path fill="#E5E7E9" d="M228.594,353.931l-32.605,182.351l154.577-187.18L228.594,353.931z"/>
<path fill="#EAEBEC" d="M0,434.134l195.99,102.148l32.605-182.351L0,431.321L0,434.134z"/>
<path fill="#E5E7E9" d="M0,504.732l195.99,31.549L0,434.134V504.732z"/>
<path fill="#E1E3E5" d="M1839.599,760.913l64.013-66.423l-108.694-182.36L1839.599,760.913z"/>
<path fill="#E4E6E8" d="M1624.632,715.014l214.967,45.899l-44.682-248.783L1624.632,715.014z"/>
<path fill="#E1E3E5" d="M1582.37,535.085l42.262,179.928l170.285-202.883L1582.37,535.085z"/>
<path fill="#E3E5E7" d="M1478.512,754.879l146.12-39.865l-42.262-179.928L1478.512,754.879z"/>
<path fill="#EAEBEC" d="M1426.583,559.235l51.929,195.644l103.858-219.793L1426.583,559.235z"/>
<path fill="#E7E9EA" d="M1319.106,727.088l159.405,27.791l-51.929-195.644L1319.106,727.088z"/>
<path fill="#F0F1F2" d="M1220.076,556.813l99.03,170.275l107.477-167.853L1220.076,556.813z"/>
<path fill="#EBECED" d="M1031.684,723.474l287.423,3.614l-99.03-170.275L1031.684,723.474z"/>
<path fill="#EDEFF0" d="M998.47,508.509l33.214,214.965l188.393-166.661L998.47,508.509z"/>
<path fill="#F0F1F2" d="M937.484,756.082l94.2-32.608L998.47,508.509L937.484,756.082z"/>
<path fill="#EEEFF1" d="M851.741,513.336l85.743,242.746l60.986-247.573L851.741,513.336z"/>
<path fill="#EBECED" d="M694.751,672.746l242.732,83.336l-85.743-242.746L694.751,672.746z"/>
<path fill="#F0F1F2" d="M712.859,491.608l-18.108,181.138l156.99-159.41L712.859,491.608z"/>
<path fill="#EEEFF1" d="M551.038,523.006l143.714,149.74l18.108-181.138L551.038,523.006z"/>
<path fill="#EBECED" d="M480.996,710.183l213.755-37.437l-143.714-149.74L480.996,710.183z"/>
<path fill="#EAEBEC" d="M344.529,577.354l136.467,132.828l70.042-187.176L344.529,577.354z"/>
<path fill="#E8EAEB" d="M392.832,772.99l88.164-62.808L344.529,577.354L392.832,772.99z"/>
<path fill="#EDEFF0" d="M229.803,698.109l163.029,74.881l-48.303-195.636L229.803,698.109z"/>
<path fill="#E5E7E9" d="M195.989,536.282l33.814,161.828l114.726-120.755L195.989,536.282z"/>
<path fill="#EAEBEC" d="M0,762.216l229.803-64.106l-33.814-161.828L0,726.533V762.216z"/>
<path fill="#EFF0F1" d="M0,726.533l195.989-190.251L0,504.732L0,726.533z"/>
<path fill="#E1E3E5" d="M1624.632,715.014l187.188,214.962l27.778-169.063L1624.632,715.014z"/>
<path fill="#E3E5E7" d="M1554.591,961.38l257.229-31.404l-187.188-214.962L1554.591,961.38z"/>
<path fill="#E6E8EA" d="M1478.512,754.879l76.079,206.501l70.041-246.366L1478.512,754.879z"/>
<path fill="#E1E3E5" d="M1471.268,937.222l83.323,24.158l-76.079-206.501L1471.268,937.222z"/>
<path fill="#E4E6E8" d="M1319.106,727.088l152.161,210.134l7.244-182.343L1319.106,727.088z"/>
<path fill="#E8EAEB" d="M1293.742,942.049l177.525-4.827l-152.161-210.134L1293.742,942.049z"/>
<path fill="#ECEEEF" d="M1086.028,927.571l207.714,14.478l25.364-214.961L1086.028,927.571z"/>
<path fill="#EEEFF1" d="M1031.684,723.474l54.345,204.098l233.078-200.483L1031.684,723.474z"/>
<path fill="#F1F2F3" d="M937.484,756.082l148.544,171.489l-54.345-204.098L937.484,756.082z"/>
<path fill="#EEEFF1" d="M827.588,937.222l258.44-9.65L937.484,756.082L827.588,937.222z"/>
<path fill="#EAEBEC" d="M694.751,672.746l132.836,264.476l109.896-181.14L694.751,672.746z"/>
<path fill="#ECEDEE" d="M660.933,964.993l166.655-27.771L694.751,672.746L660.933,964.993z"/>
<path fill="#ECEEEF" d="M518.433,898.584l142.5,66.409l33.818-292.247L518.433,898.584z"/>
<path fill="#E8EAEB" d="M480.996,710.183l37.437,188.401l176.319-225.838L480.996,710.183z"/>
<path fill="#EDEFF0" d="M392.832,772.99l125.601,125.594l-37.437-188.401L392.832,772.99z"/>
<path fill="#E8EAEB" d="M380.757,881.668l137.676,16.916L392.832,772.99L380.757,881.668z"/>
<path fill="#E5E7E9" d="M162.173,851.475l218.583,30.193l12.075-108.678L162.173,851.475z"/>
<path fill="#E8EAEB" d="M229.803,698.109l-67.63,153.365l230.659-78.484L229.803,698.109z"/>
<path fill="#E3E5E7" d="M0,794.673l162.173,56.802l67.63-153.365L0,762.216L0,794.673z"/>
<path fill="#E9EAEC" d="M0,895.796l162.173-44.321L0,794.673V895.796z"/>
<path fill="#E5E7E9" d="M1920,1080l0.002-46.956L1811.82,929.976L1748.114,1080H1920z"/>
<path fill="#E9EAEC" d="M1554.591,961.38L1703.85,1080h44.265l63.706-150.024L1554.591,961.38z"/>
<path fill="#E3E4E6" d="M1703.85,1080l-149.259-118.62l9.403,118.621L1703.85,1080z"/>
<path fill="#E8EAEB" d="M1563.994,1080.001l-9.403-118.621L1419.521,1080L1563.994,1080.001z"/>
<path fill="#E5E7E9" d="M1471.268,937.222L1392.149,1080h27.372l135.069-118.62L1471.268,937.222z"/>
<path fill="#EBECED" d="M1293.742,942.049l54.1,137.955l44.308-0.004l79.118-142.778L1293.742,942.049z"/>
<path fill="#E8EAEB" d="M1176.595,1036.256l91.58,43.744l79.667,0.004l-54.1-137.955L1176.595,1036.256z"/>
<path fill="#EAEBEC" d="M1086.028,927.571l90.566,108.685l117.147-94.207L1086.028,927.571z"/>
<path fill="#ECEDEE" d="M1126.043,1080l50.552-43.744l-90.566-108.685L1061.465,1080H1126.043z"/>
<path fill="#EAEBEC" d="M927.824,1073.688l10.911,6.311l122.729,0.002l24.563-152.429L927.824,1073.688z"/>
<path fill="#ECEEEF" d="M827.588,937.222l100.236,136.466l158.204-146.116L827.588,937.222z"/>
<path fill="#F0F1F2" d="M913.278,1080l14.546-6.313L827.588,937.222L767.968,1080H913.278z"/>
<path fill="#EEEFF1" d="M660.933,964.993l44.845,115.01l62.19-0.003l59.62-142.778L660.933,964.993z"/>
<path fill="#ECEEEF" d="M530.501,1057.994l45.628,22.007l129.648,0.002l-44.845-115.01L530.501,1057.994z"/>
<path fill="#E8EAEB" d="M518.433,898.584l12.069,159.41l130.432-93.001L518.433,898.584z"/>
<path fill="#EBECED" d="M380.757,881.668l149.745,176.326l-12.069-159.41L380.757,881.668z"/>
<path fill="#EAEBEC" d="M473.759,1080l56.743-22.006L380.757,881.668l-77.949,198.333L473.759,1080z"/>
<path fill="#ECEDEE" d="M163.383,1037.461L201.667,1080l101.141,0.001l77.949-198.333L163.383,1037.461z"/>
<path fill="#E8EAEB" d="M162.173,851.475l1.21,185.986l217.374-155.793L162.173,851.475z"/>
<path fill="#EBECED" d="M51.067,1053.164l112.316-15.703l-1.21-185.986L51.067,1053.164z"/>
<path fill="#EAEBEC" d="M0,976.56l51.067,76.604l111.106-201.689L0,895.796V976.56z"/>
<path fill="#E2E4E5" d="M0,1066.321l51.066-13.157L0,976.56L0,1066.321z"/>
<path fill="#E4E6E8" d="M1176.595,1036.256l19.784,43.741l71.796,0.003L1176.595,1036.256z"/>
<path fill="#EAEBEC" d="M1196.379,1079.997l-19.784-43.741L1158.493,1080L1196.379,1079.997z"/>
<path fill="#E3E4E6" d="M1158.493,1080l18.102-43.744L1126.043,1080H1158.493z"/>
<path fill="#E4E6E8" d="M927.824,1073.688l0.65,6.312l10.261-0.001L927.824,1073.688z"/>
<path fill="#E6E8EA" d="M928.475,1079.999l-0.65-6.312L923.28,1080L928.475,1079.999z"/>
<path fill="#ECEDEE" d="M923.28,1080l4.544-6.313L913.278,1080H923.28z"/>
<path fill="#E4E6E8" d="M530.501,1057.994L524.022,1080l52.107,0.001L530.501,1057.994z"/>
<path fill="#E1E3E5" d="M524.022,1080l6.479-22.006L473.759,1080H524.022z"/>
<path fill="#E4E6E8" d="M163.383,1037.461l-0.966,42.538l39.25,0.001L163.383,1037.461z"/>
<path fill="#E1E3E5" d="M51.067,1053.164L65.721,1080l96.696-0.001l0.966-42.538L51.067,1053.164z"/>
<path fill="#E6E8EA" d="M65.721,1080l-14.654-26.836L49.457,1080H65.721z"/>
<path fill="#E4E6E8" d="M0,1080h49.457l1.61-26.836L0,1066.321L0,1080z"/>
<polygon fill="#E1E3E5" points="1920,915.772 1811.82,929.976 1920,1033.042 "/>
<polygon fill="#E5E7E9" points="1920,895.255 1839.599,760.913 1811.82,929.976 1920,915.772 "/>
<polygon fill="#E4E6E8" points="1920,697.658 1903.611,694.49 1920,824.184 "/>
<polygon fill="#E8EAEB" points="1920,824.184 1903.611,694.49 1839.599,760.913 1920,895.255 "/>
<polygon fill="#E1E3E5" points="1920,670.22 1903.611,694.49 1920,697.658 "/>
<polygon fill="#E1E3E5" points="1920,457.461 1794.917,512.13 1920,510.197 "/>
<polygon fill="#E3E5E7" points="1920,510.197 1794.917,512.13 1903.611,694.49 1920,670.22 "/>
<polygon fill="#E3E5E7" points="1920,383.337 1850.468,323.741 1794.917,512.13 1920,457.461 "/>
<polygon fill="#E9EAEC" points="1920,332.475 1850.468,323.741 1920,383.337 "/>
<polygon fill="#E1E3E5" points="1920,243.031 1850.468,323.741 1920,332.475 "/>
<polygon fill="#E5E7E9" points="1920,177.196 1826.314,192.102 1850.468,323.741 1920,243.031 "/>
<polygon fill="#E1E3E5" points="1920,29.27 1826.314,192.102 1920,177.196 "/>
<polygon fill="#E3E5E7" points="1813.442,0 1826.314,192.102 1920,29.27 1920,11.958 1895.839,0 "/>
<polygon fill="#E1E3E5" points="1895.839,0 1920,11.958 1920,0 "/>
<polygon fill="#E1E3E5" points="1751.357,0 1676.57,53.232 1826.314,192.102 1813.442,0 "/>
<polygon fill="#E3E5E7" points="1696.955,0 1676.57,53.232 1751.357,0 "/>
<polygon fill="#E1E3E5" points="1663.578,0 1676.57,53.232 1696.955,0 "/>
<polygon fill="#E3E4E6" points="1511.225,0 1490.589,26.661 1676.57,53.232 1663.578,0 "/>
<polygon fill="#E8EAEB" points="1475.218,0 1490.589,26.661 1511.225,0 "/>
<polygon fill="#EBECED" points="1356.248,0 1269.588,163.125 1490.589,26.661 1475.218,0 "/>
<polygon fill="#E6E8EA" points="1189.626,0 1269.588,163.125 1356.248,0 "/>
<polygon fill="#EDEFF0" points="1158.929,0 1038.932,129.313 1269.588,163.125 1189.626,0 "/>
<polygon fill="#E8EAEB" points="1027.549,0 1038.932,129.313 1158.929,0 "/>
<polygon fill="#EFF0F1" points="1014.164,0 941.109,137.761 1038.932,129.313 1027.549,0 "/>
<polygon fill="#E8EAEB" points="942.068,0 857.778,21.831 941.109,137.761 1014.164,0 "/>
<polygon fill="#E2E4E5" points="857.18,0 857.778,21.831 942.068,0 "/>
<polygon fill="#E8EAEB" points="819.576,0 857.778,21.831 857.18,0 "/>
<polygon fill="#EDEFF0" points="716.855,0 666.972,178.83 857.778,21.831 819.576,0 "/>
<polygon fill="#E8EAEB" points="650.442,0 666.972,178.83 716.855,0 "/>
<polygon fill="#ECEDEE" points="489.142,0 666.972,178.83 650.442,0 "/>
<polygon fill="#EEEFF1" points="458.715,0 496.689,211.433 666.972,178.83 489.142,0 "/>
<polygon fill="#E7E9EA" points="341.651,0 496.689,211.433 458.715,0 "/>
<polygon fill="#E9EAEC" points="337.871,0 363.847,264.566 496.689,211.433 341.651,0 "/>
<polygon fill="#ECEDEE" points="332.663,0 144.059,242.833 363.847,264.566 337.871,0 "/>
<polygon fill="#E9EAEC" points="169.712,0 134,0 144.059,242.833 332.663,0 "/>
</svg>
