<?xml version="1.0" encoding="utf-8"?>
<!DOCTYPE svg PUBLIC "-//W3C//DTD SVG 1.1//EN" "http://www.w3.org/Graphics/SVG/1.1/DTD/svg11.dtd">
<svg version="1.1" id="1" xmlns="http://www.w3.org/2000/svg" xmlns:xlink="http://www.w3.org/1999/xlink" x="0px" y="0px"
	 width="1920px" height="1080px" viewBox="0 0 1920 1080" enable-background="new 0 0 1920 1080" xml:space="preserve">
<rect y="0" fill="#101113" width="1920" height="1080"/>
<path fill="#28292B" d="M1680.183,142.588l146.133,49.515L1676.57,53.232L1680.183,142.588z"/>
<path fill="#191A1C" d="M1490.589,26.661l189.594,115.927l-3.611-89.354L1490.589,26.661z"/>
<path fill="#28292B" d="M1413.301,211.433l266.882-68.846L1490.589,26.661L1413.301,211.433z"/>
<path fill="#101113" d="M1269.588,163.125l143.713,48.308l77.288-184.771L1269.588,163.125z"/>
<path fill="#17181A" d="M666.972,178.83l274.138-41.067L857.778,21.832L666.972,178.83z"/>
<path fill="#232426" d="M0,144.562l144.06,98.271L134,0L0,125.618V144.562z"/>
<path fill="#101113" d="M0,0v125.618L134,0h-5.772H0z"/>
<path fill="#101113" d="M1600.483,338.238l249.983-14.498l-24.152-131.639L1600.483,338.238z"/>
<path fill="#191A1C" d="M1680.183,142.588l-79.698,195.65l225.831-146.136L1680.183,142.588z"/>
<path fill="#212224" d="M1413.301,211.433l187.184,126.806l79.698-195.65L1413.301,211.433z"/>
<path fill="#28292B" d="M1490.589,451.75l109.896-113.512l-187.184-126.806L1490.589,451.75z"/>
<path fill="#101113" d="M1205.58,309.243l285.009,142.507l-77.288-240.316L1205.58,309.243z"/>
<path fill="#1E1F21" d="M1269.588,163.125l-64.008,146.118l207.721-97.811L1269.588,163.125z"/>
<path fill="#232426" d="M1038.932,129.313l166.648,179.931l64.008-146.118L1038.932,129.313z"/>
<path fill="#1C1D1F" d="M1055.832,323.741l149.748-14.498l-166.647-179.931L1055.832,323.741z"/>
<path fill="#17181A" d="M941.109,137.761l114.723,185.979l-16.9-194.428L941.109,137.761z"/>
<path fill="#262628" d="M861.403,390.164l194.429-66.423L941.109,137.761L861.403,390.164z"/>
<path fill="#1C1D1F" d="M762.374,374.468l99.03,15.696l79.706-252.402L762.374,374.468z"/>
<path fill="#232426" d="M666.972,178.83l95.401,195.64l178.735-236.707L666.972,178.83z"/>
<path fill="#1E1F21" d="M546.202,398.606l216.172-24.139L666.972,178.83L546.202,398.606z"/>
<path fill="#1C1D1F" d="M496.688,211.433l49.513,187.174L666.972,178.83L496.688,211.433z"/>
<path fill="#232426" d="M363.847,264.566l182.354,134.041l-49.513-187.174L363.847,264.566z"/>
<path fill="#101113" d="M350.566,349.102l195.636,49.504l-182.355-134.04L350.566,349.102z"/>
<path fill="#151618" d="M228.594,353.931l121.973-4.829l13.28-84.536L228.594,353.931z"/>
<path fill="#232426" d="M144.059,242.833l84.535,111.098l135.253-89.365L144.059,242.833z"/>
<path fill="#151618" d="M0,431.321l228.594-77.391l-84.535-111.098L0,428.219V431.321z"/>
<path fill="#101113" d="M0,428.219l144.059-185.385L0,144.562V428.219z"/>
<path fill="#191A1C" d="M1600.483,338.238l194.434,173.893l55.551-188.391L1600.483,338.238z"/>
<path fill="#232426" d="M1582.37,535.086l212.547-22.955l-194.434-173.893L1582.37,535.086z"/>
<path fill="#101113" d="M1490.589,451.75l91.781,83.336l18.113-196.848L1490.589,451.75z"/>
<path fill="#1E1F21" d="M1426.583,559.235l155.787-24.149l-91.781-83.336L1426.583,559.235z"/>
<path fill="#262628" d="M1220.076,556.813l206.507,2.423l64.006-107.484L1220.076,556.813z"/>
<path fill="#232426" d="M1205.58,309.243l14.496,247.569l270.513-105.063L1205.58,309.243z"/>
<path fill="#1C1D1F" d="M998.47,508.51l221.606,48.304l-14.496-247.569L998.47,508.51z"/>
<path fill="#262628" d="M1055.832,323.741L998.47,508.51l207.11-199.267L1055.832,323.741z"/>
<path fill="#212224" d="M861.403,390.164L998.47,508.51l57.362-184.769L861.403,390.164z"/>
<path fill="#151618" d="M851.741,513.337l146.729-4.828L861.403,390.164L851.741,513.337z"/>
<path fill="#262628" d="M762.374,374.468l89.368,138.869l9.662-123.173L762.374,374.468z"/>
<path fill="#151618" d="M712.859,491.608l138.882,21.729l-89.368-138.868L712.859,491.608z"/>
<path fill="#232426" d="M546.202,398.606l166.658,93.002l49.514-117.141L546.202,398.606z"/>
<path fill="#191A1C" d="M551.038,523.007l161.822-31.398l-166.658-93.002L551.038,523.007z"/>
<path fill="#262628" d="M344.529,577.354l206.509-54.348l-4.836-124.4L344.529,577.354z"/>
<path fill="#232426" d="M350.566,349.102l-6.037,228.252l201.673-178.748L350.566,349.102z"/>
<path fill="#101113" d="M195.989,536.282l148.54,41.073l6.037-228.252L195.989,536.282z"/>
<path fill="#212224" d="M228.594,353.931l-32.604,182.351l154.577-187.18L228.594,353.931z"/>
<path fill="#1C1D1F" d="M0,434.135l195.99,102.147l32.605-182.351L0,431.321V434.135z"/>
<path fill="#232426" d="M0,504.732l195.99,31.549L0,434.135V504.732z"/>
<path fill="#191A1C" d="M1839.599,760.913l64.014-66.423l-108.694-182.359L1839.599,760.913z"/>
<path fill="#212224" d="M1624.632,715.014l214.967,45.898l-44.682-248.782L1624.632,715.014z"/>
<path fill="#191A1C" d="M1582.37,535.086l42.262,179.928l170.285-202.883L1582.37,535.086z"/>
<path fill="#262628" d="M1478.512,754.88l146.12-39.865l-42.262-179.928L1478.512,754.88z"/>
<path fill="#191A1C" d="M1426.583,559.235l51.929,195.645l103.858-219.794L1426.583,559.235z"/>
<path fill="#131416" d="M1319.106,727.089l159.404,27.791l-51.929-195.645L1319.106,727.089z"/>
<path fill="#1E1F21" d="M1220.076,556.813l99.03,170.275l107.477-167.854L1220.076,556.813z"/>
<path fill="#232426" d="M1031.684,723.474l287.423,3.614l-99.029-170.275L1031.684,723.474z"/>
<path fill="#212224" d="M998.47,508.51l33.214,214.965l188.394-166.661L998.47,508.51z"/>
<path fill="#262628" d="M937.484,756.082l94.199-32.607L998.47,508.51L937.484,756.082z"/>
<path fill="#232426" d="M851.741,513.337l85.743,242.745L998.47,508.51L851.741,513.337z"/>
<path fill="#1E1F21" d="M694.751,672.746l242.732,83.336L851.74,513.336L694.751,672.746z"/>
<path fill="#262628" d="M712.859,491.608l-18.108,181.138l156.99-159.41L712.859,491.608z"/>
<path fill="#1E1F21" d="M551.038,523.007l143.714,149.739l18.108-181.138L551.038,523.007z"/>
<path fill="#232426" d="M480.996,710.183l213.755-37.438L551.037,523.007L480.996,710.183z"/>
<path fill="#1C1D1F" d="M344.529,577.354l136.467,132.828l70.042-187.176L344.529,577.354z"/>
<path fill="#101113" d="M392.832,772.99l88.164-62.808L344.529,577.354L392.832,772.99z"/>
<path fill="#262628" d="M229.803,698.109l163.029,74.881l-48.303-195.636L229.803,698.109z"/>
<path fill="#212224" d="M195.989,536.282l33.813,161.828l114.727-120.755L195.989,536.282z"/>
<path fill="#1C1D1F" d="M0,762.217l229.803-64.106l-33.813-161.828L0,726.533V762.217z"/>
<path fill="#28292B" d="M0,726.533l195.989-190.251L0,504.732V726.533z"/>
<path fill="#191A1C" d="M1624.632,715.014l187.188,214.962l27.777-169.063L1624.632,715.014z"/>
<path fill="#232426" d="M1554.591,961.381l257.229-31.404l-187.188-214.962L1554.591,961.381z"/>
<path fill="#1E1F21" d="M1478.512,754.88l76.079,206.501l70.041-246.366L1478.512,754.88z"/>
<path fill="#191A1C" d="M1471.268,937.222l83.323,24.158l-76.079-206.501L1471.268,937.222z"/>
<path fill="#212224" d="M1319.106,727.089l152.16,210.134l7.244-182.343L1319.106,727.089z"/>
<path fill="#101113" d="M1293.742,942.05l177.524-4.827l-152.16-210.134L1293.742,942.05z"/>
<path fill="#262628" d="M1086.028,927.571l207.714,14.479l25.364-214.961L1086.028,927.571z"/>
<path fill="#191A1C" d="M1031.684,723.474l54.346,204.098l233.077-200.482L1031.684,723.474z"/>
<path fill="#101113" d="M937.484,756.082l148.544,171.489l-54.346-204.098L937.484,756.082z"/>
<path fill="#232426" d="M827.588,937.222l258.44-9.65l-148.544-171.49L827.588,937.222z"/>
<path fill="#191A1C" d="M694.751,672.746l132.836,264.477l109.896-181.141L694.751,672.746z"/>
<path fill="#151618" d="M660.933,964.993l166.655-27.771L694.751,672.746L660.933,964.993z"/>
<path fill="#232426" d="M518.433,898.584l142.5,66.409l33.818-292.247L518.433,898.584z"/>
<path fill="#101113" d="M480.996,710.183l37.437,188.4l176.319-225.838L480.996,710.183z"/>
<path fill="#232426" d="M392.832,772.99l125.601,125.594l-37.437-188.4L392.832,772.99z"/>
<path fill="#17181A" d="M380.757,881.669l137.676,16.916L392.832,772.99L380.757,881.669z"/>
<path fill="#212224" d="M162.173,851.475l218.583,30.192l12.075-108.678L162.173,851.475z"/>
<path fill="#151618" d="M229.803,698.109l-67.63,153.365l230.659-78.484L229.803,698.109z"/>
<path fill="#232426" d="M0,794.674l162.173,56.802l67.63-153.365L0,762.217V794.674z"/>
<path fill="#212224" d="M0,895.797l162.173-44.321L0,794.674V895.797z"/>
<path fill="#212224" d="M1920,1080l0.002-46.955L1811.82,929.976L1748.114,1080H1920z"/>
<path fill="#1C1D1F" d="M1554.591,961.381L1703.85,1080h44.266l63.706-150.023L1554.591,961.381z"/>
<path fill="#232426" d="M1703.85,1080l-149.259-118.619l9.403,118.621L1703.85,1080z"/>
<path fill="#101113" d="M1563.994,1080.002l-9.403-118.621L1419.521,1080L1563.994,1080.002z"/>
<path fill="#232426" d="M1471.268,937.222L1392.149,1080h27.371l135.069-118.619L1471.268,937.222z"/>
<path fill="#232426" d="M1293.742,942.05l54.1,137.955l44.308-0.005l79.118-142.777L1293.742,942.05z"/>
<path fill="#101113" d="M1176.595,1036.257l91.58,43.743l79.667,0.005l-54.1-137.955L1176.595,1036.257z"/>
<path fill="#1C1D1F" d="M1086.028,927.571l90.565,108.686l117.147-94.207L1086.028,927.571z"/>
<path fill="#151618" d="M1126.043,1080l50.552-43.743l-90.565-108.686L1061.465,1080H1126.043z"/>
<path fill="#1C1D1F" d="M927.824,1073.688l10.911,6.312l122.729,0.002l24.563-152.43L927.824,1073.688z"/>
<path fill="#28292B" d="M827.588,937.222l100.236,136.466l158.204-146.116L827.588,937.222z"/>
<path fill="#232426" d="M913.278,1080l14.546-6.313L827.588,937.222L767.968,1080H913.278z"/>
<path fill="#262628" d="M660.933,964.993l44.846,115.011l62.189-0.004l59.62-142.777L660.933,964.993z"/>
<path fill="#232426" d="M530.501,1057.994l45.628,22.008l129.648,0.002l-44.846-115.011L530.501,1057.994z"/>
<path fill="#101113" d="M518.433,898.584l12.069,159.41l130.432-93.001L518.433,898.584z"/>
<path fill="#232426" d="M380.757,881.669l149.745,176.325l-12.069-159.41L380.757,881.669z"/>
<path fill="#1C1D1F" d="M473.759,1080l56.743-22.006L380.757,881.669l-77.949,198.333L473.759,1080z"/>
<path fill="#151618" d="M163.383,1037.462L201.667,1080l101.141,0.002l77.949-198.334L163.383,1037.462z"/>
<path fill="#101113" d="M162.173,851.475l1.21,185.985l217.374-155.793L162.173,851.475z"/>
<path fill="#232426" d="M51.067,1053.164l112.316-15.703l-1.21-185.985L51.067,1053.164z"/>
<path fill="#1C1D1F" d="M0,976.56l51.067,76.604l111.106-201.688L0,895.797V976.56z"/>
<path fill="#151618" d="M0,1066.321l51.066-13.157L0,976.56V1066.321z"/>
<path fill="#28292B" d="M1176.595,1036.257l19.784,43.74l71.796,0.003L1176.595,1036.257z"/>
<path fill="#1C1D1F" d="M1196.379,1079.997l-19.784-43.74L1158.493,1080L1196.379,1079.997z"/>
<path fill="#232426" d="M1158.493,1080l18.102-43.743L1126.043,1080H1158.493z"/>
<path fill="#28292B" d="M927.824,1073.688l0.649,6.312h10.262L927.824,1073.688z"/>
<path fill="#1E1F21" d="M928.475,1080l-0.649-6.313L923.28,1080H928.475z"/>
<path fill="#151618" d="M923.28,1080l4.544-6.313L913.278,1080H923.28z"/>
<path fill="#28292B" d="M530.501,1057.994L524.022,1080l52.106,0.002L530.501,1057.994z"/>
<path fill="#191A1C" d="M524.022,1080l6.479-22.006L473.759,1080H524.022z"/>
<path fill="#232426" d="M163.383,1037.462L162.417,1080h39.25L163.383,1037.462z"/>
<path fill="#191A1C" d="M51.067,1053.164L65.721,1080h96.696l0.966-42.538L51.067,1053.164z"/>
<path fill="#1E1F21" d="M65.721,1080l-14.654-26.836L49.457,1080H65.721z"/>
<path fill="#232426" d="M0,1080h49.457l1.61-26.836L0,1066.321V1080z"/>
<polygon fill="#191A1C" points="1920,915.772 1811.82,929.976 1920,1033.043 "/>
<polygon fill="#28292B" points="1920,895.256 1839.599,760.913 1811.82,929.976 1920,915.772 "/>
<polygon fill="#28292B" points="1920,697.658 1903.611,694.49 1920,824.184 "/>
<polygon fill="#101113" points="1920,824.184 1903.611,694.49 1839.599,760.913 1920,895.256 "/>
<polygon fill="#191A1C" points="1920,670.22 1903.611,694.49 1920,697.658 "/>
<polygon fill="#191A1C" points="1920,457.462 1794.917,512.131 1920,510.197 "/>
<polygon fill="#1E1F21" points="1920,510.197 1794.917,512.131 1903.611,694.49 1920,670.22 "/>
<polygon fill="#101113" points="1920,383.337 1850.468,323.741 1794.917,512.131 1920,457.462 "/>
<polygon fill="#212224" points="1920,332.475 1850.468,323.741 1920,383.337 "/>
<polygon fill="#191A1C" points="1920,243.031 1850.468,323.741 1920,332.475 "/>
<polygon fill="#1C1D1F" points="1920,177.196 1826.313,192.102 1850.468,323.741 1920,243.031 "/>
<polygon fill="#191A1C" points="1920,29.27 1826.313,192.102 1920,177.196 "/>
<polygon fill="#131416" points="1813.442,0 1826.313,192.102 1920,29.27 1920,11.958 1895.839,0 "/>
<polygon fill="#191A1C" points="1895.839,0 1920,11.958 1920,0 "/>
<polygon fill="#191A1C" points="1751.357,0 1676.57,53.232 1826.313,192.102 1813.442,0 "/>
<polygon fill="#212224" points="1696.955,0 1676.57,53.232 1751.357,0 "/>
<polygon fill="#191A1C" points="1663.578,0 1676.57,53.232 1696.955,0 "/>
<polygon fill="#28292B" points="1511.225,0 1490.589,26.661 1676.57,53.232 1663.578,0 "/>
<polygon fill="#101113" points="1475.218,0 1490.589,26.661 1511.225,0 "/>
<polygon fill="#232426" points="1356.248,0 1269.588,163.125 1490.589,26.661 1475.218,0 "/>
<polygon fill="#1E1F21" points="1189.626,0 1269.588,163.125 1356.248,0 "/>
<polygon fill="#262628" points="1158.929,0 1038.932,129.313 1269.588,163.125 1189.626,0 "/>
<polygon fill="#101113" points="1027.549,0 1038.932,129.313 1158.929,0 "/>
<polygon fill="#232426" points="1014.164,0 941.109,137.761 1038.932,129.313 1027.549,0 "/>
<polygon fill="#101113" points="942.068,0 857.778,21.831 941.109,137.761 1014.164,0 "/>
<polygon fill="#232426" points="857.18,0 857.778,21.831 942.068,0 "/>
<polygon fill="#101113" points="819.576,0 857.778,21.831 857.18,0 "/>
<polygon fill="#212224" points="716.854,0 666.972,178.83 857.778,21.831 819.576,0 "/>
<polygon fill="#101113" points="650.442,0 666.972,178.83 716.854,0 "/>
<polygon fill="#17181A" points="489.142,0 666.972,178.83 650.442,0 "/>
<polygon fill="#232426" points="458.715,0 496.688,211.433 666.972,178.83 489.142,0 "/>
<polygon fill="#131416" points="341.651,0 496.688,211.433 458.715,0 "/>
<polygon fill="#212224" points="337.871,0 363.847,264.566 496.688,211.433 341.651,0 "/>
<polygon fill="#151618" points="332.663,0 144.059,242.833 363.847,264.566 337.871,0 "/>
<polygon fill="#1E1F21" points="169.712,0 134,0 144.059,242.833 332.663,0 "/>
</svg>
